<svg width="20" height="20" viewBox="0 0 20 20" fill="none" xmlns="http://www.w3.org/2000/svg">
<path d="M17.5544 0H2.44561C1.79276 0 1.26167 0.531133 1.26167 1.18395V18.816C1.26167 19.4689 1.7928 20 2.44561 20H17.5544C18.2073 20 18.7384 19.4688 18.7384 18.816V1.18395C18.7384 0.531133 18.2073 0 17.5544 0ZM2.20881 1.18395C2.20881 1.0534 2.31502 0.947148 2.44561 0.947148H17.5544C17.685 0.947148 17.7912 1.05336 17.7912 1.18395V5.28941H2.20881V1.18395ZM6.77151 19.0528H2.44561C2.31506 19.0528 2.20881 18.9466 2.20881 18.816V13.117H6.77151V19.0528ZM6.77151 12.1699H2.20881V6.2366H6.77151V12.1699ZM12.2814 19.0529H7.71866V13.117H12.2814V19.0529ZM12.2814 12.1699H7.71866V6.2366H12.2814V12.1699ZM17.7912 18.816C17.7912 18.9466 17.6849 19.0529 17.5544 19.0529H13.2285V6.2366H17.7912V18.816Z" fill="#055FD6"/>
<path d="M5.66098 8.72969H4.96371V8.03243C4.96371 7.77087 4.75168 7.55884 4.49012 7.55884C4.22856 7.55884 4.01652 7.77087 4.01652 8.03243V8.72969H3.31926C3.0577 8.72969 2.84566 8.94176 2.84566 9.20328C2.84566 9.46481 3.0577 9.67688 3.31926 9.67688H4.01652V10.3742C4.01652 10.6357 4.22856 10.8478 4.49012 10.8478C4.75168 10.8478 4.96371 10.6357 4.96371 10.3742V9.67688H5.66098C5.92254 9.67688 6.13457 9.46481 6.13457 9.20328C6.13457 8.94176 5.92254 8.72969 5.66098 8.72969Z" fill="#055FD6"/>
<path d="M11.1943 8.72968H8.8057C8.54414 8.72968 8.33211 8.94175 8.33211 9.20327C8.33211 9.46479 8.54414 9.67686 8.8057 9.67686H11.1943C11.4558 9.67686 11.6678 9.46479 11.6678 9.20327C11.6678 8.94175 11.4558 8.72968 11.1943 8.72968Z" fill="#055FD6"/>
<path d="M5.15989 16.0862L5.73157 15.5145C5.91649 15.3296 5.91649 15.0297 5.73157 14.8447C5.54665 14.6598 5.24676 14.6598 5.06176 14.8447L4.49008 15.4164L3.9184 14.8447C3.73348 14.6598 3.4336 14.6598 3.2486 14.8447C3.06368 15.0296 3.06368 15.3295 3.2486 15.5145L3.82032 16.0862L3.24864 16.6579C3.06372 16.8428 3.06372 17.1427 3.24864 17.3276C3.34114 17.4201 3.46231 17.4663 3.58352 17.4663C3.70469 17.4663 3.82594 17.4201 3.9184 17.3276L4.49008 16.7559L5.06176 17.3276C5.15426 17.4201 5.27544 17.4663 5.39665 17.4663C5.51786 17.4663 5.63907 17.4201 5.73153 17.3276C5.91645 17.1427 5.91645 16.8428 5.73153 16.6579L5.15989 16.0862Z" fill="#055FD6"/>
<path d="M11.2412 14.8447C11.0562 14.6598 10.7565 14.6598 10.5714 14.8447L8.75831 16.6578C8.57342 16.8428 8.57342 17.1427 8.75834 17.3277C8.85085 17.4201 8.97202 17.4664 9.09323 17.4664C9.21444 17.4664 9.33565 17.4201 9.42811 17.3277L11.2412 15.5145C11.4262 15.3296 11.4262 15.0297 11.2412 14.8447Z" fill="#055FD6"/>
<path d="M9.09324 15.5837C9.31636 15.5837 9.49723 15.4029 9.49723 15.1797C9.49723 14.9566 9.31636 14.7758 9.09324 14.7758C8.87013 14.7758 8.68926 14.9566 8.68926 15.1797C8.68926 15.4029 8.87013 15.5837 9.09324 15.5837Z" fill="#055FD6"/>
<path d="M10.9066 17.3965C11.1297 17.3965 11.3105 17.2157 11.3105 16.9926C11.3105 16.7695 11.1297 16.5887 10.9066 16.5887C10.6835 16.5887 10.5027 16.7695 10.5027 16.9926C10.5027 17.2157 10.6835 17.3965 10.9066 17.3965Z" fill="#055FD6"/>
<path d="M16.7064 11.3447H14.2857C14.0241 11.3447 13.8121 11.5567 13.8121 11.8183C13.8121 12.0798 14.0241 12.2919 14.2857 12.2919H16.7064C16.9679 12.2919 17.18 12.0798 17.18 11.8183C17.18 11.5567 16.968 11.3447 16.7064 11.3447Z" fill="#055FD6"/>
<path d="M16.7064 12.9976H14.2857C14.0241 12.9976 13.8121 13.2097 13.8121 13.4712C13.8121 13.7327 14.0241 13.9448 14.2857 13.9448H16.7064C16.9679 13.9448 17.18 13.7327 17.18 13.4712C17.18 13.2097 16.968 12.9976 16.7064 12.9976Z" fill="#055FD6"/>
</svg>
