<svg width="100" height="100" viewBox="0 0 100 100" fill="none" xmlns="http://www.w3.org/2000/svg">
<g clip-path="url(#clip0)">
<path d="M98.1769 86.5106H96.5106V74.8438C96.5106 73.9233 95.7642 73.1769 94.8431 73.1769H89.8431V64.8438C89.8431 63.9227 89.0967 63.1769 88.1769 63.1769H83.1763V54.8431C83.1763 53.9233 82.4304 53.1769 81.5094 53.1769H69.8431V1.51062C69.8431 0.5896 69.0973 -0.15625 68.1763 -0.15625C67.2565 -0.15625 66.5094 0.5896 66.5094 1.51062V29.8438H63.1763V1.51062C63.1763 0.5896 62.4298 -0.15625 61.51 -0.15625C60.589 -0.15625 59.8425 0.5896 59.8425 1.51062V29.8438H56.5094V1.51062C56.5094 0.5896 55.7636 -0.15625 54.8425 -0.15625C53.9221 -0.15625 53.1763 0.5896 53.1763 1.51062V86.5106H26.5106V1.51062C26.5106 0.5896 25.7636 -0.15625 24.8438 -0.15625C23.9227 -0.15625 23.1769 0.5896 23.1769 1.51062V29.8438H19.8431V1.51062C19.8431 0.5896 19.0973 -0.15625 18.1769 -0.15625C17.2565 -0.15625 16.51 0.5896 16.51 1.51062V29.8438H13.1769V1.51062C13.1769 0.5896 12.4304 -0.15625 11.5106 -0.15625C10.5896 -0.15625 9.84375 0.5896 9.84375 1.51062V86.5106H1.51062C0.5896 86.5106 -0.15625 87.2565 -0.15625 88.1769V98.1775C-0.15625 99.0973 0.5896 99.8438 1.51062 99.8438H98.1775C99.0973 99.8438 99.8438 99.0973 99.8438 98.1775V88.1769C99.8438 87.2565 99.0973 86.5106 98.1769 86.5106ZM93.1769 86.5106H69.8431V76.5106H93.1769V86.5106ZM86.5106 73.1769H69.8431V66.51H86.5106V73.1769ZM79.8438 56.51V63.1769H69.8431V56.51H79.8438ZM56.51 33.1775H66.51V86.5106H56.51V33.1775ZM13.1769 33.1775H23.1769V86.5106H13.1769V33.1775ZM96.5106 96.5106H3.17688V89.8438H96.5106V96.5106Z" fill="#E1E1E1"/>
</g>
<defs>
<clipPath id="clip0">
<rect width="100" height="100" fill="white"/>
</clipPath>
</defs>
</svg>
