<svg width="100" height="100" viewBox="0 0 100 100" fill="none" xmlns="http://www.w3.org/2000/svg">
<g clip-path="url(#clip0)">
<path d="M83.6504 92.8775L79.4194 39.4605H79.6229C81.3748 39.4605 82.7999 38.0354 82.7999 36.2835V28.8706C82.7999 27.1187 81.3748 25.6936 79.6229 25.6936H74.1508C74.0572 20.9443 71.1788 16.7461 66.7611 14.9542C65.8591 14.5883 65.2145 13.7701 65.0787 12.8188C64.8996 11.5625 64.4044 10.3561 63.6468 9.32969C62.7475 8.1124 61.5243 7.19337 60.1095 6.67243C59.3206 6.38198 58.7083 5.77665 58.4297 5.01194C57.7457 3.13346 56.3764 1.61048 54.5741 0.723885C51.236 -0.918831 46.71 0.336548 44.6911 3.46435C44.4506 3.83723 44.241 4.23141 44.0684 4.63613C43.5578 5.83291 42.8722 6.97031 42.0307 8.01669C41.5236 8.64721 41.6238 9.56936 42.2543 10.0762C42.8851 10.5835 43.8072 10.4831 44.3141 9.85278C45.3233 8.59759 46.1476 7.22931 46.7633 5.78603C46.8711 5.53347 47.0022 5.28677 47.153 5.05315C48.3832 3.14694 51.2461 2.35215 53.2808 3.35301C54.4016 3.90443 55.2525 4.84982 55.6768 6.01476C56.2508 7.59106 57.4974 8.83316 59.0972 9.42227C59.9736 9.74496 60.7319 10.3149 61.2901 11.0705C61.7671 11.7166 62.0662 12.4442 62.1785 13.2327C62.4609 15.213 63.795 16.9131 65.66 17.6696C68.9671 19.011 71.1281 22.1435 71.221 25.694H63.9653C63.1561 25.694 62.5004 26.3499 62.5004 27.1589C62.5004 27.968 63.1561 28.6239 63.9653 28.6239H79.6229C79.7591 28.6239 79.87 28.7346 79.87 28.871V36.2839C79.87 36.4202 79.7592 36.531 79.6229 36.531H20.3773C20.241 36.531 20.13 36.4202 20.13 36.2839V28.871C20.13 28.7346 20.2408 28.6239 20.3773 28.6239H57.5212C58.3305 28.6239 58.9862 27.968 58.9862 27.1589C58.9862 26.3499 58.3305 25.694 57.5212 25.694H29.7748C29.8994 25.6105 30.0254 25.5291 30.1529 25.45C32.3476 24.0895 33.9962 22.1548 34.9197 19.8552C34.9434 19.7964 34.9674 19.7376 34.9926 19.6776C35.8868 17.5437 37.3402 15.6931 39.1957 14.3258C39.8471 13.8457 39.986 12.9286 39.5059 12.2774C39.0263 11.6262 38.1089 11.4875 37.4576 11.9672C35.176 13.6486 33.3893 15.9232 32.2912 18.5439C32.2605 18.617 32.2306 18.69 32.2011 18.7633C31.5118 20.4796 30.2697 21.9307 28.6094 22.9599C27.3896 23.7161 26.2811 24.6364 25.3084 25.6941H20.3773C18.6254 25.6941 17.2001 27.1193 17.2001 28.8712V36.2841C17.2001 38.036 18.6254 39.4611 20.3773 39.4611H20.5808L19.9818 47.0237C19.9179 47.8302 20.5199 48.5359 21.3266 48.5998C21.3659 48.6029 21.4049 48.6045 21.4438 48.6045C22.2005 48.6045 22.8418 48.0222 22.9027 47.2551L23.5199 39.4611H76.4801L80.7294 93.109C80.8113 94.1417 80.4693 95.1295 79.7663 95.8903C79.0631 96.6513 78.1054 97.0703 77.0694 97.0703H22.9301C21.894 97.0703 20.9365 96.6511 20.2333 95.8903C19.5304 95.1293 19.1883 94.1417 19.2702 93.109L22.3939 53.6711C22.4577 52.8646 21.8557 52.1589 21.049 52.095C20.2425 52.03 19.537 52.6331 19.4731 53.4396L16.3498 92.8775C16.2049 94.7074 16.836 96.5302 18.0818 97.8785C19.3274 99.2269 21.0947 100 22.9302 100H77.0696C78.9053 100 80.6726 99.2269 81.9184 97.8785C83.164 96.5302 83.7953 94.7074 83.6504 92.8775Z" fill="#E1E1E1"/>
<path d="M49.9999 81.2371C58.7477 81.2371 65.8647 74.1201 65.8647 65.3723C65.8647 56.6245 58.7477 49.5075 49.9999 49.5075C41.2521 49.5075 34.1351 56.6245 34.1351 65.3723C34.1351 74.1201 41.2521 81.2371 49.9999 81.2371ZM62.9348 65.3723C62.9348 72.009 57.9097 77.4917 51.4649 78.2218V66.8373H53.941C54.7503 66.8373 55.406 66.1813 55.406 65.3723C55.406 64.5632 54.7503 63.9073 53.941 63.9073H51.4649V52.5228C57.9097 53.2529 62.9348 58.7356 62.9348 65.3723ZM48.5349 52.5228V63.9073H46.0589C45.2497 63.9073 44.594 64.5632 44.594 65.3723C44.594 66.1813 45.2497 66.8373 46.0589 66.8373H48.5349V78.2218C42.0901 77.4917 37.065 72.009 37.065 65.3723C37.065 58.7356 42.0903 53.2529 48.5349 52.5228Z" fill="#E1E1E1"/>
<path d="M26.5604 92.0892H35.0143C35.8235 92.0892 36.4792 91.4333 36.4792 90.6242C36.4792 89.8152 35.8235 89.1592 35.0143 89.1592H26.5604C25.7512 89.1592 25.0955 89.8152 25.0955 90.6242C25.0955 91.4333 25.7514 92.0892 26.5604 92.0892Z" fill="#E1E1E1"/>
<path d="M26.5604 86.4246H30.7873C31.5966 86.4246 32.2523 85.7687 32.2523 84.9597C32.2523 84.1506 31.5966 83.4947 30.7873 83.4947H26.5604C25.7512 83.4947 25.0955 84.1506 25.0955 84.9597C25.0955 85.7687 25.7514 86.4246 26.5604 86.4246Z" fill="#E1E1E1"/>
<path d="M42.9815 19.7333H42.9886C43.7943 19.7333 44.4494 19.0821 44.4533 18.2752C44.4572 17.4661 43.8045 16.8071 42.9952 16.8034H42.9749C42.9726 16.8034 42.9704 16.8034 42.9679 16.8034C42.1621 16.8034 41.507 17.4546 41.5031 18.2615C41.4992 19.0705 42.152 19.7296 42.9612 19.7333H42.9815Z" fill="#E1E1E1"/>
<path d="M47.3509 22.2267C48.1601 22.2267 48.8158 21.5708 48.8158 20.7617C48.8158 19.9527 48.1601 19.2967 47.3509 19.2967H47.3305C46.5213 19.2967 45.8656 19.9527 45.8656 20.7617C45.8656 21.5708 46.5213 22.2267 47.3305 22.2267H47.3509Z" fill="#E1E1E1"/>
</g>
<defs>
<clipPath id="clip0">
<rect width="100" height="100" fill="white"/>
</clipPath>
</defs>
</svg>
