<svg width="100" height="100" viewBox="0 0 100 100" fill="none" xmlns="http://www.w3.org/2000/svg">
<g clip-path="url(#clip0)">
<path d="M35.8467 20.5842C33.8394 24.0906 32.1975 28.8819 31.0653 34.5658C30.9074 35.3592 31.4224 36.1306 32.2166 36.2885C32.3127 36.3076 32.4089 36.3167 32.5042 36.3167C33.1886 36.3167 33.8005 35.8346 33.9393 35.138C35.1524 29.0452 36.9476 24.1005 39.1311 20.8382C39.3669 20.4857 39.4386 20.0478 39.3272 19.6381C39.2158 19.2292 38.9328 18.8881 38.5498 18.7035C38.15 18.5112 37.751 18.3007 37.3649 18.0779C34.9701 16.6977 33.9874 15.429 33.5853 14.6065C33.1619 13.7413 33.1627 12.9288 33.5868 12.1926C34.5916 10.4493 37.2032 10.5683 40.5731 12.5092C42.0051 13.3347 43.2846 14.3288 44.2733 15.3832C44.6754 15.812 45.2942 15.9592 45.8465 15.757C55.5137 12.2117 73.7953 12.2117 83.464 15.757C84.0156 15.9592 84.6351 15.8127 85.0372 15.3832C86.026 14.3288 87.3054 13.3347 88.7374 12.5092C91.1323 11.1298 92.7238 10.9177 93.6348 10.9803C94.5961 11.0482 95.2987 11.4556 95.7237 12.1926C96.7277 13.9359 95.3155 16.1355 91.9456 18.0771C91.558 18.3007 91.159 18.512 90.76 18.7035C90.3778 18.8881 90.0947 19.2292 89.9826 19.6381C89.8712 20.0478 89.9429 20.4857 90.1786 20.8382C91.9059 23.4185 93.367 26.9761 94.5205 31.4118C94.7242 32.1946 95.523 32.663 96.3066 32.4608C97.0893 32.2571 97.5593 31.4576 97.3556 30.6748C96.3073 26.6449 95.0012 23.259 93.4646 20.5834C99.2508 17.2257 99.7398 13.2943 98.2612 10.73C97.3472 9.14311 95.7771 8.19401 93.84 8.05821C91.9197 7.9247 89.7117 8.56709 87.2749 9.97166C85.9031 10.7621 84.642 11.6936 83.5815 12.6961C73.3528 9.30714 55.957 9.30714 45.729 12.6961C44.6678 11.6936 43.4074 10.7621 42.0349 9.97166C36.1953 6.60634 32.5309 8.15663 31.0485 10.73C30.1338 12.3169 30.1002 14.151 30.9539 15.8951C31.7939 17.6102 33.4396 19.1872 35.8467 20.5842Z" fill="#E1E1E1"/>
<path d="M98.6419 36.718C98.5053 35.9207 97.7493 35.3851 96.9512 35.5202C96.154 35.6567 95.6176 36.4136 95.7542 37.2108C98.7495 54.7646 96.5118 75.1389 90.66 83.5953C90.4197 83.9417 90.3411 84.3742 90.4434 84.7832C90.5456 85.1921 90.8187 85.537 91.1926 85.7307C91.452 85.8643 91.7053 86.0024 91.9456 86.1404C95.3155 88.0829 96.7277 90.2824 95.7237 92.0258C95.2987 92.7628 94.596 93.1702 93.6347 93.2381C92.7223 93.3022 91.1323 93.0885 88.7374 91.7084C87.3565 90.9126 86.1121 89.9559 85.1386 88.942C84.7434 88.5307 84.1461 88.3858 83.6067 88.5704C82.6423 88.9008 81.5749 89.2075 80.4351 89.4814C79.6478 89.6706 79.1633 90.461 79.3525 91.2476C79.5409 92.0342 80.3314 92.5179 81.1179 92.3302C82.0197 92.1135 82.8811 91.8778 83.6906 91.6252C84.7289 92.5888 85.9527 93.4853 87.2749 94.2467C89.5011 95.5299 91.5366 96.1784 93.3349 96.1777C93.505 96.1777 93.6736 96.1723 93.84 96.1601C95.7771 96.0243 97.3472 95.0752 98.262 93.4883C99.6993 90.9943 99.2767 87.2078 93.9292 83.9134C97.4021 78.0159 98.8746 69.6899 99.4979 63.5277C100.39 54.7051 100.086 45.1836 98.6419 36.718Z" fill="#E1E1E1"/>
<path d="M83.757 46.3188V37.7434C83.757 34.0233 80.7304 30.9967 77.0095 30.9967H52.3002C48.5801 30.9967 45.5535 34.0233 45.5535 37.7434V46.3188C45.5535 50.0389 48.5801 53.0655 52.3002 53.0655H77.0103C80.7304 53.0655 83.757 50.0389 83.757 46.3188ZM80.8273 46.3188C80.8273 48.4238 79.1145 50.1358 77.0095 50.1358H52.3002C50.1953 50.1358 48.4832 48.4238 48.4832 46.3188V37.7434C48.4832 35.6392 50.1953 33.9264 52.3002 33.9264H77.0103C79.1145 33.9264 80.8273 35.6392 80.8273 37.7434V46.3188Z" fill="#E1E1E1"/>
<path d="M69.2825 83.2322H66.8884C66.2766 76.2665 61.3434 70.3522 54.5799 68.5257C54.129 63.7986 52.0111 59.4292 48.5428 56.1234C44.8662 52.6177 40.0642 50.6882 34.9899 50.6691L23.0515 17.8711C25.9514 14.9025 27.33 10.6484 26.6716 6.53081C26.5129 5.54204 25.9262 4.68297 25.0618 4.17485C24.1966 3.66597 23.1598 3.5706 22.2168 3.91393L3.98941 10.5484C3.04642 10.8918 2.31323 11.6311 1.97754 12.5771C1.64185 13.5216 1.74484 14.5569 2.25906 15.4168C4.4014 18.9934 8.19092 21.3662 12.3199 21.7766L24.0288 53.949C21.714 55.4863 19.7083 57.5234 18.1679 59.9724C17.7368 60.6575 17.9428 61.5616 18.6279 61.9927C19.3123 62.423 20.2164 62.217 20.6474 61.5326C26.3878 52.4064 38.8634 50.943 46.5218 58.2436C49.7078 61.2816 51.5564 65.3717 51.7281 69.7617C51.754 70.4392 52.2415 71.0099 52.9068 71.1419C59.3475 72.419 64.0228 78.1205 64.0236 84.6978C64.0236 85.5065 64.679 86.1626 65.4884 86.1626H69.2825C71.5599 86.1626 73.4123 88.015 73.4123 90.2916V93.248H2.92969V90.2916C2.92969 88.015 4.7821 86.1626 7.05872 86.1626H9.8381C10.6468 86.1626 11.3029 85.5065 11.3029 84.6978C11.3029 80.8564 13.8893 77.4651 17.5926 76.4512C18.3655 76.2398 18.8248 75.4464 18.6234 74.6712C18.1953 73.0225 18.0206 71.3143 18.1038 69.5939C18.1541 68.5532 18.3037 67.5133 18.5471 66.504C18.737 65.7181 18.2526 64.927 17.4667 64.737C16.6801 64.5478 15.889 65.0307 15.699 65.8173C15.4129 67.0052 15.2374 68.2282 15.1779 69.452C15.1024 71.0106 15.2077 72.5609 15.4915 74.0784C11.6882 75.6417 8.99429 79.1558 8.46786 83.2329H7.05948C3.16696 83.2322 0 86.3991 0 90.2916V94.0659C0 95.2301 0.947571 96.177 2.11182 96.177H74.2302C75.3944 96.177 76.342 95.2301 76.342 94.0659V90.2916C76.342 86.3991 73.175 83.2322 69.2825 83.2322ZM4.77295 13.9115C4.68521 13.765 4.71344 13.6261 4.73785 13.5567C4.76303 13.4865 4.82864 13.3599 4.99115 13.3011L23.2185 6.66661C23.4665 6.57582 23.7366 6.73451 23.7785 6.99391C24.5522 11.8302 21.7918 16.5879 17.1265 18.2854C15.921 18.7241 14.666 18.9309 13.3987 18.9087C9.88083 18.8378 6.57578 16.9228 4.77295 13.9115ZM15.416 21.7148C16.3368 21.5867 17.244 21.3608 18.129 21.0389C19.0147 20.7169 19.8547 20.3064 20.6413 19.8136L31.9527 50.8912C30.0926 51.1719 28.299 51.7167 26.6182 52.4979L15.416 21.7148Z" fill="#E1E1E1"/>
<path d="M46.5545 79.2122C47.1611 78.8025 47.8706 78.5858 48.6068 78.5858C50.6324 78.5858 52.2804 80.2337 52.2804 82.2593C52.2804 83.0681 52.9365 83.7242 53.7452 83.7242C54.5547 83.7242 55.2101 83.0681 55.2101 82.2593C55.2101 78.6178 52.2483 75.6561 48.6068 75.6561C47.2839 75.6561 46.0067 76.046 44.9142 76.7845C44.2443 77.2377 44.0681 78.1479 44.5205 78.8185C44.9737 79.4883 45.8839 79.6646 46.5545 79.2122Z" fill="#E1E1E1"/>
<path d="M20.2141 82.3204C19.725 82.9651 19.8517 83.8836 20.4971 84.3719C20.7611 84.5726 21.0716 84.6695 21.3798 84.6695C21.8231 84.6695 22.261 84.4696 22.5487 84.0889C23.1804 83.2557 24.1409 82.7781 25.1854 82.7781C25.9926 82.7781 26.77 83.0719 27.3742 83.6059C27.98 84.1423 28.9055 84.0851 29.4411 83.4793C29.9774 82.8735 29.9209 81.9481 29.3144 81.4117C28.1746 80.4039 26.7082 79.8484 25.1854 79.8484C23.2162 79.8484 21.4042 80.7495 20.2141 82.3204Z" fill="#E1E1E1"/>
<path d="M29.8515 67.45C30.4085 67.45 30.9402 67.1303 31.1859 66.5909C31.3515 66.2254 31.5872 65.9004 31.8855 65.6258C33.1032 64.5035 35.0067 64.5821 36.129 65.7997C36.6768 66.394 37.6037 66.4322 38.1988 65.8844C38.7939 65.3359 38.8321 64.4096 38.2835 63.8145C36.0672 61.409 32.3067 61.2549 29.9003 63.4712C29.3121 64.0137 28.8467 64.6553 28.5187 65.3793C28.1837 66.1163 28.5103 66.9846 29.2465 67.3187C29.4433 67.408 29.6486 67.45 29.8515 67.45Z" fill="#E1E1E1"/>
</g>
<defs>
<clipPath id="clip0">
<rect width="100" height="100" fill="white"/>
</clipPath>
</defs>
</svg>
