<svg width="100" height="84" viewBox="0 0 100 84" fill="none" xmlns="http://www.w3.org/2000/svg">
<path d="M24.1936 64.5162C20.6355 64.5162 17.7419 67.4097 17.7419 70.9678C17.7419 74.5259 20.6355 77.4194 24.1936 77.4194C27.7516 77.4194 30.6452 74.5259 30.6452 70.9678C30.6452 67.4097 27.7516 64.5162 24.1936 64.5162ZM24.1936 74.1936C22.4145 74.1936 20.9677 72.7468 20.9677 70.9678C20.9677 69.1888 22.4145 67.742 24.1936 67.742C25.9726 67.742 27.4194 69.1888 27.4194 70.9678C27.4194 72.7468 25.9726 74.1936 24.1936 74.1936Z" fill="#E1E1E1"/>
<path d="M95.1613 3.22581C92.4935 3.22581 90.3226 5.39677 90.3226 8.06452V9.67742H87.0968C87.0968 7.89839 85.65 6.45161 83.871 6.45161H80.6452C78.8661 6.45161 77.4194 7.89839 77.4194 9.67742V58.0645H67.7419V48.3871C69.521 48.3871 70.9677 46.9403 70.9677 45.1613V41.9355C70.9677 40.1565 69.521 38.7097 67.7419 38.7097H65.3484L74.1936 18.0726V10.8016L66.9919 0H39.4597L32.2581 10.8016V18.0726L41.1032 38.7097H38.7097C36.9306 38.7097 35.4839 40.1565 35.4839 41.9355V45.1613C35.4839 46.9403 36.9306 48.3871 38.7097 48.3871V58.0645H29.0323V6.45161H20.6452L0 15.0532V54.8387H19.3548V59.0145C14.6323 60.9339 11.2903 65.5645 11.2903 70.9678C11.2903 78.0823 17.079 83.871 24.1935 83.871C31.3081 83.871 37.0968 78.0823 37.0968 70.9678C37.0968 69.8516 36.9403 68.7758 36.6726 67.7419H43.5484C46.2161 67.7419 48.3871 65.571 48.3871 62.9032V56.4516C48.3871 55.5629 49.1113 54.8387 50 54.8387C50.8887 54.8387 51.6129 55.5629 51.6129 56.4516V74.1936C51.6129 76.8613 53.7839 79.0323 56.4516 79.0323C59.1194 79.0323 61.2903 76.8613 61.2903 74.1936V69.3548C61.2903 68.4661 62.0145 67.7419 62.9032 67.7419H77.4194V74.1936H74.9436L70.9677 80.1565V83.871H93.5484V80.1565L89.5726 74.1936H87.0968V22.5806H90.3226V24.1936C90.3226 26.8613 92.4935 29.0323 95.1613 29.0323C97.829 29.0323 100 26.8613 100 24.1936V8.06452C100 5.39677 97.829 3.22581 95.1613 3.22581ZM70.9677 12.9032V16.129H35.4839V12.9032H70.9677ZM41.1855 3.22581H65.2661L69.5677 9.67742H36.8839L41.1855 3.22581ZM36.3161 19.3548H70.1339L61.8387 38.7097H44.6113L36.3161 19.3548ZM38.7097 41.9355H67.7419V45.1613H38.7097V41.9355ZM3.22581 51.6129V17.2048L19.3548 10.4839V51.6129H3.22581ZM22.5806 9.67742H25.8065V58.1758C25.2774 58.1097 24.7403 58.0645 24.1935 58.0645C23.6468 58.0645 23.1097 58.1097 22.5806 58.1758V9.67742ZM24.1935 80.6452C18.8565 80.6452 14.5161 76.3048 14.5161 70.9678C14.5161 65.6307 18.8565 61.2903 24.1935 61.2903C29.5306 61.2903 33.871 65.6307 33.871 70.9678C33.871 76.3048 29.5306 80.6452 24.1935 80.6452ZM32.7 61.2903H38.7097V62.9032C38.7097 63.471 38.8258 64.0097 39.0065 64.5161H35.35C34.6452 63.3016 33.7484 62.2129 32.7 61.2903ZM58.0645 69.3548V74.1936C58.0645 75.0823 57.3403 75.8065 56.4516 75.8065C55.5629 75.8065 54.8387 75.0823 54.8387 74.1936V56.4516C54.8387 53.7839 52.6677 51.6129 50 51.6129C47.3323 51.6129 45.1613 53.7839 45.1613 56.4516V62.9032C45.1613 63.7919 44.4371 64.5161 43.5484 64.5161C42.6597 64.5161 41.9355 63.7919 41.9355 62.9032V48.3871H64.5161V62.9032C64.5161 63.7919 63.7919 64.5161 62.9032 64.5161C60.2355 64.5161 58.0645 66.6871 58.0645 69.3548ZM67.4452 64.5161C67.6258 64.0097 67.7419 63.471 67.7419 62.9032V61.2903H77.4194V64.5161H67.4452ZM87.8468 77.4194L89.9968 80.6452H74.5177L76.6677 77.4194H77.4194H87.0968H87.8468ZM80.6452 74.1936V9.67742L83.871 9.67581V74.1936H80.6452ZM87.0968 19.3548V12.9032H90.3226V19.3548H87.0968ZM96.7742 24.1936C96.7742 25.0823 96.05 25.8065 95.1613 25.8065C94.2726 25.8065 93.5484 25.0823 93.5484 24.1936V8.06452C93.5484 7.17581 94.2726 6.45161 95.1613 6.45161C96.05 6.45161 96.7742 7.17581 96.7742 8.06452V24.1936Z" fill="#E1E1E1"/>
<path d="M6.4516 45.1613H16.129V48.3871H6.4516V45.1613Z" fill="#E1E1E1"/>
<path d="M6.4516 38.7097H16.129V41.9355H6.4516V38.7097Z" fill="#E1E1E1"/>
<path d="M12.9032 19.3549H9.67741C7.89837 19.3549 6.4516 20.8016 6.4516 22.5807V32.2581C6.4516 34.0371 7.89837 35.4839 9.67741 35.4839H12.9032C14.6822 35.4839 16.129 34.0371 16.129 32.2581V22.5807C16.129 20.8016 14.6822 19.3549 12.9032 19.3549ZM9.67741 32.2581V22.5807H12.9032L12.9048 32.2581H9.67741Z" fill="#E1E1E1"/>
</svg>
