<svg width="100" height="100" viewBox="0 0 100 100" fill="none" xmlns="http://www.w3.org/2000/svg">
<path d="M4.68738 96.8753H95.3124C95.5176 96.8753 95.7208 96.8349 95.9103 96.7564C96.0999 96.6778 96.2722 96.5627 96.4173 96.4177C96.5624 96.2726 96.6774 96.1003 96.756 95.9107C96.8345 95.7212 96.8749 95.518 96.8749 95.3128V69.3534C96.8749 67.8961 96.5218 66.4605 95.8457 65.1696C95.1697 63.8786 94.1909 62.7707 92.9932 61.9406C91.7954 61.1105 90.4144 60.5831 88.9682 60.4034C87.5221 60.2237 86.0539 60.3971 84.6894 60.9088L80.4011 62.517C79.4509 62.869 78.4126 62.9057 77.44 62.6215C76.4674 62.3373 75.6121 61.7474 75.0009 60.9392C74.2709 59.9706 73.3264 59.1843 72.2416 58.6418C71.1567 58.0994 69.961 57.8156 68.7481 57.8128H65.9234L68.5963 52.2384C68.6993 52.0236 68.7518 51.7881 68.7498 51.5499C68.7479 51.3117 68.6914 51.0771 68.5849 50.864L62.3349 38.364C62.2051 38.1045 62.0057 37.8862 61.7588 37.7336C61.512 37.5811 61.2276 37.5003 60.9374 37.5003H54.6874V29.6878C54.8926 29.6878 55.0958 29.6474 55.2853 29.5688C55.4749 29.4903 55.6472 29.3752 55.7923 29.2301C55.9373 29.085 56.0524 28.9128 56.131 28.7232C56.2095 28.5336 56.2499 28.3305 56.2499 28.1253V9.37518C56.2499 7.71758 55.5914 6.12787 54.4193 4.95577C53.2472 3.78366 51.6575 3.12518 49.9999 3.12518C48.3423 3.12518 46.7526 3.78366 45.5805 4.95577C44.4084 6.12787 43.7499 7.71758 43.7499 9.37518V17.4693L42.7242 17.6744C39.3335 18.3487 35.831 18.207 32.5059 17.2608C28.5836 16.1362 24.382 16.5267 20.7342 18.355C19.6321 18.9027 18.4181 19.1878 17.1874 19.1878C15.9567 19.1877 14.7427 18.9027 13.6407 18.3549C12.1048 17.5893 10.4125 17.1899 8.69634 17.1878H4.68738C4.48219 17.1878 4.279 17.2282 4.08943 17.3067C3.89985 17.3852 3.7276 17.5003 3.58251 17.6454C3.43742 17.7905 3.32233 17.9628 3.2438 18.1523C3.16528 18.3419 3.12487 18.5451 3.12488 18.7503V95.3128C3.12487 95.518 3.16529 95.7212 3.24381 95.9107C3.32233 96.1003 3.43742 96.2726 3.58252 96.4177C3.72761 96.5628 3.89986 96.6778 4.08943 96.7564C4.279 96.8349 4.48219 96.8753 4.68738 96.8753ZM53.1249 26.5628H46.8749V12.5003H53.1249V26.5628ZM45.3124 31.2503V37.5003H39.0624C38.7722 37.5003 38.4878 37.5811 38.2409 37.7336C37.9941 37.8862 37.7946 38.1045 37.6649 38.364L31.8467 50.0003H31.2499V31.2503H45.3124ZM18.7499 71.8753V53.1253H31.8236L40.7052 71.8753H18.7499ZM6.24988 71.8753V53.1253H15.6249V71.8753H6.24988ZM28.1249 50.0003H6.24988V31.2503H28.1249V50.0003ZM6.24988 75.0003H28.1249V93.7503H6.24988V75.0003ZM31.2499 75.0003H42.1855L44.1572 79.1627C44.6831 80.2731 45.5184 81.2081 46.5627 81.8553C47.607 82.5026 48.816 82.8347 50.0444 82.8117C51.2728 82.7887 52.4685 82.4116 53.4878 81.7256C54.5072 81.0397 55.3068 80.0741 55.7908 78.9448L57.6822 75.0003H68.7499V93.7503H31.2499L31.2499 75.0003ZM93.7499 93.7503H71.8749V75.0003H93.7499V93.7503ZM68.7481 60.9378C69.476 60.9395 70.1937 61.1098 70.8448 61.4353C71.4959 61.7609 72.0628 62.2328 72.501 62.8141C73.5194 64.1607 74.9443 65.1434 76.5648 65.6169C78.1853 66.0904 79.9153 66.0294 81.4984 65.443L85.7866 63.8349C86.6783 63.5005 87.6378 63.3871 88.5828 63.5045C89.5279 63.622 90.4304 63.9666 91.2132 64.5091C91.9959 65.0515 92.6356 65.7756 93.0774 66.6192C93.5191 67.4629 93.7499 68.4011 93.7499 69.3534V71.8753H59.1806L64.425 60.9378L68.7481 60.9378ZM59.9717 40.6253L65.4477 51.5772L52.9577 77.6254C52.9468 77.6483 52.9365 77.6713 52.9266 77.6946C52.6826 78.2741 52.2761 78.7707 51.7561 79.1242C51.2361 79.4777 50.6249 79.6732 49.9963 79.687C49.3676 79.7008 48.7484 79.5323 48.2134 79.2019C47.6785 78.8715 47.2506 78.3932 46.9814 77.825L34.5501 51.5813L40.0281 40.6253H45.3124V48.4378C45.3124 49.681 45.8062 50.8733 46.6853 51.7523C47.5644 52.6314 48.7567 53.1253 49.9999 53.1253C51.2431 53.1253 52.4354 52.6314 53.3144 51.7523C54.1935 50.8733 54.6874 49.681 54.6874 48.4378V40.6253H59.9717ZM51.5624 48.4378C51.5624 48.8522 51.3978 49.2496 51.1047 49.5426C50.8117 49.8357 50.4143 50.0003 49.9999 50.0003C49.5855 50.0003 49.1881 49.8357 48.895 49.5426C48.602 49.2496 48.4374 48.8522 48.4374 48.4378V29.6878H51.5624V48.4378ZM49.9999 6.25027C50.8284 6.2512 51.6227 6.58072 52.2085 7.16656C52.7944 7.75239 53.1239 8.54668 53.1249 9.37518V9.37527H46.8749V9.37518C46.8758 8.54668 47.2054 7.75239 47.7912 7.16656C48.3771 6.58073 49.1714 6.2512 49.9999 6.25027H49.9999ZM8.69635 20.3128C9.9274 20.3143 11.1414 20.6008 12.2432 21.15C13.7795 21.9136 15.4718 22.311 17.1874 22.311C18.9031 22.311 20.5954 21.9136 22.1317 21.15C25.0804 19.6722 28.4768 19.3566 31.6474 20.2657C35.4513 21.348 39.4581 21.5102 43.337 20.7388L43.7499 20.6562V28.1253H6.24989V20.3128H8.69635Z" fill="#E1E1E1"/>
</svg>
