<svg width="299" height="456" viewBox="0 0 299 456" fill="none" xmlns="http://www.w3.org/2000/svg">
<path d="M256.5 224C256.5 329.763 170.763 415.5 65 415.5C-40.7625 415.5 -126.5 329.763 -126.5 224C-126.5 118.237 -40.7625 32.5 65 32.5C170.763 32.5 256.5 118.237 256.5 224ZM65 416.5C171.315 416.5 257.5 330.315 257.5 224C257.5 117.685 171.315 31.5 65 31.5C-41.3148 31.5 -127.5 117.685 -127.5 224C-127.5 330.315 -41.3148 416.5 65 416.5ZM222.5 217C222.5 303.985 151.985 374.5 65 374.5C-21.9848 374.5 -92.5 303.985 -92.5 217C-92.5 130.015 -21.9848 59.5 65 59.5C151.985 59.5 222.5 130.015 222.5 217ZM65 375.5C152.537 375.5 223.5 304.537 223.5 217C223.5 129.463 152.537 58.5 65 58.5C-22.5371 58.5 -93.5 129.463 -93.5 217C-93.5 304.537 -22.5371 375.5 65 375.5ZM188.5 217C188.5 287.969 130.969 345.5 60 345.5C-10.9686 345.5 -68.5 287.969 -68.5 217C-68.5 146.031 -10.9686 88.5 60 88.5C130.969 88.5 188.5 146.031 188.5 217ZM60 346.5C131.521 346.5 189.5 288.521 189.5 217C189.5 145.479 131.521 87.5 60 87.5C-11.5209 87.5 -69.5 145.479 -69.5 217C-69.5 288.521 -11.5209 346.5 60 346.5ZM298.5 228C298.5 353.645 196.645 455.5 71 455.5C-54.6448 455.5 -156.5 353.645 -156.5 228C-156.5 102.355 -54.6448 0.5 71 0.5C196.645 0.5 298.5 102.355 298.5 228Z" stroke="white" stroke-opacity="0.15"/>
</svg>
