<svg width="20" height="20" viewBox="0 0 20 20" fill="none" xmlns="http://www.w3.org/2000/svg">
<g clip-path="url(#clip0)">
<path d="M19.1498 0.500671H5.17973C4.7104 0.501218 4.33007 0.881546 4.32952 1.35088V5.20417L3.69069 4.24593C3.39828 3.80484 2.8102 3.67251 2.35704 3.94586L1.04274 4.73605C0.612317 4.98861 0.296575 5.39817 0.161854 5.87867C-0.3176 7.62446 0.0381524 10.6322 4.45291 15.0476C7.96374 18.5548 10.5814 19.4994 12.3855 19.4994C12.8032 19.5013 13.2193 19.447 13.6225 19.338C14.1028 19.2033 14.5123 18.888 14.7654 18.4581L15.5546 17.1425C15.8269 16.6897 15.6946 16.1028 15.2545 15.8105L12.1074 13.7126C11.6757 13.4271 11.0971 13.5209 10.7778 13.9283L9.86151 15.1063C9.76575 15.2323 9.59203 15.269 9.4534 15.1926L9.27903 15.0966C8.70521 14.7838 7.99105 14.3944 6.5487 12.9521C6.39265 12.796 6.25129 12.65 6.1186 12.5103H19.1498C19.618 12.5106 19.9982 12.1322 20 11.664V1.35088C19.9995 0.881546 19.6192 0.501218 19.1498 0.500671ZM8.95996 15.6821L9.12934 15.7751C9.55511 16.0132 10.0911 15.9027 10.388 15.5157L11.3042 14.3378C11.4084 14.2051 11.5969 14.1745 11.7376 14.2674L14.8847 16.3653C15.0277 16.4606 15.0707 16.6513 14.9824 16.7987L14.1932 18.1144C14.0284 18.397 13.7607 18.6049 13.4461 18.6945C11.87 19.128 9.11168 18.7612 4.9253 14.5745C0.738911 10.3878 0.373547 7.62977 0.805959 6.05505C0.895551 5.74048 1.1033 5.47275 1.38575 5.30787L2.70143 4.51834C2.84885 4.43027 3.03948 4.47321 3.13485 4.61602L5.23369 7.76312C5.32676 7.90386 5.29617 8.0925 5.16332 8.19655L3.98502 9.1131C3.59809 9.40993 3.4876 9.94577 3.72562 10.3714L3.81897 10.5408C4.15237 11.1523 4.56681 11.9131 6.07753 13.4235C7.5883 14.9339 8.34883 15.3487 8.95996 15.6821ZM19.3332 11.6641C19.3321 11.7644 19.2501 11.8449 19.1499 11.8441H5.51712C5.08408 11.3489 4.71067 10.8047 4.4045 10.2224L4.30846 10.0474C4.23188 9.90904 4.26853 9.73548 4.3945 9.63991L5.5728 8.72336C5.98032 8.40414 6.07421 7.8254 5.78852 7.3937L4.99633 6.20473V1.35088C4.99578 1.30208 5.01493 1.25511 5.04943 1.22061C5.08393 1.18611 5.13089 1.16697 5.17969 1.16752H19.1498C19.1986 1.16697 19.2456 1.18611 19.2801 1.22061C19.3146 1.25511 19.3337 1.30208 19.3332 1.35088V11.6641H19.3332Z" fill="#055FD6"/>
<path d="M18.0015 2.04443L12.4291 6.27047C12.2715 6.38503 12.058 6.38503 11.9003 6.27047L6.32999 2.04443C6.18323 1.93311 5.974 1.96187 5.86272 2.10862C5.75141 2.25538 5.78016 2.46461 5.92692 2.57588L11.4979 6.80157C11.8943 7.09438 12.4352 7.09438 12.8316 6.80157L18.4043 2.57588C18.4748 2.52243 18.5212 2.44312 18.5332 2.35544C18.5452 2.26776 18.5219 2.17891 18.4683 2.10846C18.357 1.96198 18.1481 1.93334 18.0015 2.04443Z" fill="#055FD6"/>
<path d="M9.31937 6.82958L5.90389 10.4872C5.77831 10.6218 5.7857 10.8329 5.92038 10.9585C6.05506 11.084 6.26609 11.0766 6.39166 10.942L9.80719 7.28274C9.92003 7.14662 9.90694 6.94606 9.77741 6.82568C9.64785 6.70529 9.44686 6.70701 9.31937 6.82958Z" fill="#055FD6"/>
<path d="M15.0322 6.82957C14.9066 6.69489 14.6956 6.68747 14.5609 6.81308C14.4262 6.93866 14.4188 7.14965 14.5444 7.28437L17.9589 10.942C18.0845 11.0766 18.2955 11.0841 18.4302 10.9585C18.5649 10.8329 18.5723 10.6219 18.4467 10.4872L15.0322 6.82957Z" fill="#055FD6"/>
</g>
<defs>
<clipPath id="clip0">
<rect width="20" height="20" fill="white"/>
</clipPath>
</defs>
</svg>
