<svg width="26" height="26" viewBox="0 0 26 26" fill="none" xmlns="http://www.w3.org/2000/svg">
<path d="M5.31817 19.5C5.64451 19.5 5.90906 19.2355 5.90906 18.9091C5.90906 18.5828 5.64451 18.3182 5.31817 18.3182C4.99183 18.3182 4.72728 18.5828 4.72728 18.9091C4.72728 19.2355 4.99183 19.5 5.31817 19.5Z" fill="#055FD6"/>
<path d="M20.0909 19.5C20.4172 19.5 20.6818 19.2355 20.6818 18.9091C20.6818 18.5828 20.4172 18.3182 20.0909 18.3182C19.7646 18.3182 19.5 18.5828 19.5 18.9091C19.5 19.2355 19.7646 19.5 20.0909 19.5Z" fill="#055FD6"/>
<path d="M14.7739 18.3188H8.81043C8.52799 16.6447 7.07199 15.3642 5.31877 15.3642C3.36404 15.3642 1.77388 16.9543 1.77388 18.9091C1.77388 20.8639 3.36399 22.454 5.31877 22.454C7.07138 22.454 8.52738 21.1741 8.81043 19.5006H14.7739C15.1 19.5006 15.3648 19.2365 15.3648 18.9097C15.3648 18.5829 15.1001 18.3188 14.7739 18.3188ZM5.31877 21.2721C4.01582 21.2721 2.95571 20.212 2.95571 18.909C2.95571 17.6061 4.01582 16.546 5.31877 16.546C6.62171 16.546 7.68182 17.6061 7.68182 18.909C7.68182 20.212 6.62171 21.2721 5.31877 21.2721Z" fill="#055FD6"/>
<path d="M25.2909 12.7649L23.5477 11.4566L21.8335 6.31331C21.7526 6.07165 21.5274 5.90915 21.2727 5.90915H17.1363C16.8775 5.90915 16.6494 6.07698 16.572 6.32398L13.9088 14.8454C13.7894 15.2278 13.3646 15.4488 12.9823 15.3294L2.5805 12.0439C2.38611 11.9825 2.23483 11.8218 2.18517 11.6244L1.19539 7.6647C1.18655 7.62748 1.18178 7.59026 1.18178 7.55243C1.18178 7.29832 1.38861 7.09093 1.64328 7.09093H12.8569C13.4881 7.09093 14.0819 6.8451 14.5281 6.39837L15.8529 5.07359C16.0768 4.8502 16.3735 4.72731 16.689 4.72731H17.7272C18.0534 4.72731 18.3181 4.4632 18.3181 4.13642C18.3181 3.80965 18.0534 3.54553 17.7272 3.54553H16.689C16.0579 3.54553 15.4646 3.79136 15.0173 4.23809L13.6925 5.56292C13.4721 5.78275 13.1678 5.9092 12.8569 5.9092H1.64333C0.737445 5.90915 0 6.64659 0 7.55243C0 7.68598 0.0165547 7.81893 0.0490547 7.9507L1.03883 11.9116C1.18772 12.5055 1.64216 12.9876 2.22478 13.1714L12.6259 16.4563C12.8138 16.5154 13.0083 16.5455 13.2051 16.5455C14.0489 16.5455 14.7852 16.0043 15.0374 15.1983L17.5707 7.09098H20.8467L22.2253 11.2279H21.0464L21.2101 10.9011C21.356 10.6093 21.2378 10.2541 20.9459 10.1081C20.6534 9.96276 20.2989 10.0804 20.1529 10.3723L19.7257 11.2273H17.7273C17.4011 11.2273 17.1364 11.4914 17.1364 11.8182C17.1364 12.1444 17.4011 12.4091 17.7273 12.4091L22.8493 12.4097L24.5824 13.7103C24.7301 13.8208 24.8182 13.9975 24.8182 14.1824V17.7273C24.8182 18.0535 24.5528 18.3182 24.2273 18.3182H23.5832C23.3007 16.6442 21.8447 15.3637 20.0909 15.3637C18.1356 15.3637 16.5454 16.9538 16.5454 18.9091C16.5454 20.8644 18.1356 22.4545 20.0909 22.4545C21.8441 22.4545 23.3001 21.174 23.5832 19.5H24.2273C25.2046 19.5 26 18.7047 26 17.7273V14.1824C26 13.627 25.7347 13.0969 25.2909 12.7649ZM20.0909 21.2728C18.7873 21.2728 17.7273 20.2127 17.7273 18.9091C17.7273 17.6056 18.7874 16.5455 20.0909 16.5455C21.3944 16.5455 22.4545 17.6056 22.4545 18.9091C22.4546 20.2127 21.3944 21.2728 20.0909 21.2728Z" fill="#055FD6"/>
<path d="M4.72727 8.27271C4.40111 8.27271 4.13638 8.53682 4.13638 8.8636V10.6363C4.13638 10.9631 4.40111 11.2272 4.72727 11.2272C5.05344 11.2272 5.31816 10.9631 5.31816 10.6363V8.8636C5.31816 8.53687 5.05344 8.27271 4.72727 8.27271Z" fill="#055FD6"/>
<path d="M7.09089 8.27271C6.76472 8.27271 6.5 8.53682 6.5 8.8636V11.2272C6.5 11.554 6.76472 11.8181 7.09089 11.8181C7.41706 11.8181 7.68178 11.554 7.68178 11.2272V8.8636C7.68183 8.53687 7.41711 8.27271 7.09089 8.27271Z" fill="#055FD6"/>
<path d="M9.45455 8.27271C9.12839 8.27271 8.86366 8.53682 8.86366 8.8636V11.8181C8.86366 12.1449 9.12839 12.409 9.45455 12.409C9.78072 12.409 10.0454 12.1449 10.0454 11.8181V8.8636C10.0454 8.53687 9.78072 8.27271 9.45455 8.27271Z" fill="#055FD6"/>
<path d="M11.8182 8.27271C11.492 8.27271 11.2273 8.53682 11.2273 8.8636V12.409C11.2273 12.7358 11.492 12.9999 11.8182 12.9999C12.1443 12.9999 12.4091 12.7358 12.4091 12.409V8.8636C12.4091 8.53687 12.1444 8.27271 11.8182 8.27271Z" fill="#055FD6"/>
</svg>
