<svg width="20" height="20" viewBox="0 0 20 20" fill="none" xmlns="http://www.w3.org/2000/svg">
<g clip-path="url(#clip0)">
<path d="M12.8872 0.115509C12.7954 0.018921 12.6697 -0.0390625 12.5394 -0.0390625H4.73742C3.29775 -0.0390625 2.10939 1.14456 2.10939 2.58408V17.3377C2.10939 18.7773 3.29775 19.961 4.73742 19.961H15.3267C16.7664 19.961 17.9548 18.7773 17.9548 17.3377V5.62272C17.9548 5.49714 17.8968 5.37644 17.8147 5.28459L12.8872 0.115509ZM13.0272 1.66626L16.3268 5.13001H14.1819C13.5442 5.13001 13.0272 4.61793 13.0272 3.98026V1.66626ZM15.3267 18.9948H4.73742C3.83409 18.9948 3.07558 18.246 3.07558 17.3377V2.58408C3.07558 1.68076 3.82921 0.927126 4.73742 0.927126H12.061V3.98026C12.061 5.15412 13.008 6.0962 14.1819 6.0962H16.9886V17.3377C16.9886 18.246 16.2349 18.9948 15.3267 18.9948Z" fill="#055FD6"/>
<path d="M14.0079 15.6615H6.05621C5.79056 15.6615 5.57312 15.8788 5.57312 16.1446C5.57312 16.4103 5.79056 16.6277 6.05621 16.6277H14.0128C14.2784 16.6277 14.4959 16.4103 14.4959 16.1446C14.4959 15.8788 14.2784 15.6615 14.0079 15.6615Z" fill="#055FD6"/>
<path d="M9.6794 13.9272C9.77126 14.0238 9.89684 14.0817 10.032 14.0817C10.1674 14.0817 10.293 14.0238 10.3847 13.9272L13.2156 10.8885C13.3992 10.6952 13.3847 10.3861 13.1915 10.2074C12.9982 10.0238 12.6891 10.0382 12.5104 10.2315L10.5151 12.3715V7.09625C10.5151 6.83044 10.2977 6.61316 10.032 6.61316C9.76638 6.61316 9.54894 6.83044 9.54894 7.09625V12.3715L7.55858 10.2315C7.37502 10.0383 7.0706 10.0238 6.87743 10.2074C6.68425 10.3909 6.66975 10.6954 6.85332 10.8885L9.6794 13.9272Z" fill="#055FD6"/>
</g>
<defs>
<clipPath id="clip0">
<rect width="20" height="20" fill="white"/>
</clipPath>
</defs>
</svg>
