<svg width="20" height="20" viewBox="0 0 20 20" fill="none" xmlns="http://www.w3.org/2000/svg">
<g clip-path="url(#clip0)">
<path d="M14.1539 5.95873C13.9763 5.77077 13.65 5.89881 13.647 6.1569C13.6467 6.17666 13.6145 7.99576 12.716 8.93342C11.6393 7.2592 11.4808 5.11116 11.5452 3.56702C11.6197 1.77976 12.0012 0.385268 12.005 0.371518C12.0368 0.256909 11.9945 0.131245 11.8999 0.0592919C11.7986 -0.0177392 11.6551 -0.0199658 11.5515 0.0540966C11.4767 0.107495 9.69953 1.38741 7.93372 3.56046C7.83149 3.68628 7.85059 3.87116 7.97641 3.97339C8.10219 4.07561 8.28711 4.05647 8.38938 3.93069C9.47352 2.59647 10.5816 1.59472 11.2535 1.03585C11.1375 1.63398 11.0024 2.51429 10.9592 3.52913C10.8539 6.00299 11.3605 8.08361 12.4241 9.54611C12.519 9.67666 12.7083 9.70521 12.8376 9.6083C13.7459 8.92705 14.0635 7.65209 14.1745 6.85799C15.7338 8.66904 16.7516 10.753 16.7516 12.1915C16.7516 17.18 13.282 19.4129 9.8434 19.4129C6.20685 19.4129 3.2483 16.4543 3.2483 12.8178C3.2483 12.2659 3.40791 11.5606 3.72342 10.7161C3.95049 11.0175 4.27619 11.4231 4.62591 11.7729C4.80263 11.9495 5.11482 11.8283 5.12669 11.5793C5.23126 9.38271 6.06392 7.15951 7.60141 4.97143C7.69462 4.83878 7.66262 4.65573 7.52997 4.56249C7.39731 4.46936 7.21423 4.50128 7.12099 4.63393C5.67646 6.68967 4.82853 8.78361 4.59482 10.8681C4.19615 10.3952 3.89557 9.95123 3.89154 9.94525C3.76322 9.75505 3.46545 9.7849 3.37725 9.99627C2.90209 11.1343 2.66119 12.0836 2.66119 12.8178C2.66119 16.7781 5.88314 20 9.8434 20C11.8793 20 13.7364 19.3044 15.0727 18.0411C16.5551 16.6396 17.3387 14.6169 17.3387 12.1916C17.3387 10.4532 16.0887 8.0067 14.1539 5.95873Z" fill="#277EF1"/>
<path d="M12.0312 10.8902C10.9873 9.80317 9.80417 8.57106 9.50847 6.20576C9.47609 5.94646 9.13054 5.85845 8.97831 6.07154C7.35238 8.34782 6.19293 10.9017 5.79715 13.0783C5.4082 15.2178 6.06621 16.5531 6.68668 17.2966C7.45621 18.2186 8.60683 18.7475 9.84343 18.7475C11.547 18.7475 13.5799 17.3893 13.891 15.3673C14.2279 13.1778 13.1608 12.0666 12.0312 10.8902ZM13.3108 15.278C13.0456 17.0022 11.3038 18.1603 9.84347 18.1603C8.78144 18.1603 7.79515 17.7084 7.13746 16.9203C6.5973 16.2731 6.02652 15.0994 6.37484 13.1834C6.72195 11.2744 7.68566 9.05528 9.04792 7.00517C9.4937 9.0952 10.6106 10.2584 11.6077 11.2968C12.7228 12.458 13.6035 13.3752 13.3108 15.278Z" fill="#277EF1"/>
<path d="M9.84342 13.9724H9.53029C9.1742 13.9724 8.88447 13.6827 8.88447 13.3266C8.88447 12.9705 9.1742 12.6808 9.53029 12.6808H10.7828C10.9449 12.6808 11.0763 12.5494 11.0763 12.3872C11.0763 12.2251 10.9449 12.0937 10.7828 12.0937H10.137V11.761C10.137 11.5988 10.0056 11.4674 9.84342 11.4674C9.68131 11.4674 9.54986 11.5988 9.54986 11.761V12.0937H9.53029C8.85045 12.0937 8.29736 12.6467 8.29736 13.3266C8.29736 14.0064 8.85045 14.5595 9.53029 14.5595H9.84342C10.1995 14.5595 10.4892 14.8492 10.4892 15.2053C10.4892 15.5614 10.1995 15.8511 9.84342 15.8511H8.59092C8.42881 15.8511 8.29736 15.9826 8.29736 16.1447C8.29736 16.3069 8.42881 16.4383 8.59092 16.4383H9.54986V16.771C9.54986 16.9331 9.68131 17.0645 9.84342 17.0645C10.0056 17.0645 10.137 16.9331 10.137 16.771V16.4027C10.6755 16.2706 11.0763 15.784 11.0763 15.2053C11.0763 14.5255 10.5233 13.9724 9.84342 13.9724Z" fill="#277EF1"/>
</g>
<defs>
<clipPath id="clip0">
<rect width="20" height="20" fill="white"/>
</clipPath>
</defs>
</svg>
