<svg width="20" height="20" viewBox="0 0 20 20" fill="none" xmlns="http://www.w3.org/2000/svg">
<g clip-path="url(#clip0)">
<path d="M19.3333 1.5H3.33332C2.96566 1.5 2.66664 1.79898 2.66664 2.16668V2.83336H2C1.63234 2.83336 1.33332 3.13234 1.33332 3.50004V4.16672H0.66668C0.298984 4.16668 0 4.46566 0 4.83332V17.8333C0 18.201 0.298984 18.5 0.66668 18.5H16.6667C17.0343 18.5 17.3334 18.201 17.3334 17.8333V17.1666H18C18.3677 17.1666 18.6667 16.8677 18.6667 16.5V15.8333H19.3334C19.701 15.8333 20 15.5343 20 15.1666V2.1666C20 1.79898 19.701 1.5 19.3333 1.5ZM0.66668 4.83332H16.6667L16.667 12.28L14.9177 10.2807C14.7907 10.1353 14.5427 10.1353 14.4157 10.2807L12.3037 12.6943L6.55465 7.58434C6.42832 7.47168 6.23832 7.47168 6.11199 7.58434L0.66668 12.4246V4.83332ZM16.6673 16.8363V17.8333H0.66668V13.316L6.33336 8.27902L12.112 13.4154C12.178 13.4743 12.266 13.501 12.3544 13.499C12.4434 13.4934 12.5261 13.4527 12.5844 13.3857L14.6667 11.0064L16.6671 13.2927L16.6674 16.8307C16.6674 16.8314 16.6667 16.8324 16.6667 16.8334C16.6667 16.8343 16.6673 16.8354 16.6673 16.8363ZM18 16.5H17.3333V4.83332C17.3333 4.46566 17.0343 4.16664 16.6666 4.16664H2V3.5H18V16.5ZM19.3333 15.1667H18.6666V3.5C18.6666 3.13234 18.3677 2.83332 18 2.83332H3.33332V2.16668H19.3333V15.1667Z" fill="#055FD6"/>
<path d="M12 6.83331C11.2647 6.83331 10.6667 7.43132 10.6667 8.16663C10.6667 8.90195 11.2647 9.49999 12 9.49999C12.7354 9.49999 13.3333 8.90199 13.3333 8.16667C13.3333 7.43136 12.7354 6.83331 12 6.83331ZM12 8.83331C11.6324 8.83331 11.3333 8.53433 11.3333 8.16663C11.3333 7.79898 11.6323 7.49995 12 7.49995C12.3677 7.49995 12.6667 7.79894 12.6667 8.16663C12.6667 8.53433 12.3677 8.83331 12 8.83331Z" fill="#055FD6"/>
</g>
<defs>
<clipPath id="clip0">
<rect width="20" height="20" fill="white"/>
</clipPath>
</defs>
</svg>
