<svg width="16" height="16" viewBox="0 0 16 16" fill="none" xmlns="http://www.w3.org/2000/svg">
<path d="M10.9742 0.414673H4.07318C1.82719 0.414673 0 2.27368 0 4.55879V11.5801C0 13.8651 1.82719 15.7241 4.07318 15.7241H10.9743C13.2202 15.7241 15.0474 13.8651 15.0474 11.5801V4.55879C15.0474 2.27368 13.2202 0.414673 10.9742 0.414673V0.414673ZM7.52368 12.2554C5.25496 12.2554 3.40928 10.3776 3.40928 8.06937C3.40928 5.76114 5.25496 3.88333 7.52368 3.88333C9.7924 3.88333 11.6381 5.76114 11.6381 8.06937C11.6381 10.3776 9.7924 12.2554 7.52368 12.2554ZM11.7365 4.87053C11.066 4.87053 10.5207 4.31572 10.5207 3.6336C10.5207 2.95148 11.066 2.39656 11.7365 2.39656C12.4069 2.39656 12.9523 2.95148 12.9523 3.6336C12.9523 4.31572 12.4069 4.87053 11.7365 4.87053Z" fill="white"/>
<path d="M7.52368 4.66724C5.67995 4.66724 4.17981 6.19337 4.17981 8.06933C4.17981 9.94516 5.67995 11.4714 7.52368 11.4714C9.36753 11.4714 10.8676 9.94516 10.8676 8.06933C10.8676 6.19337 9.36753 4.66724 7.52368 4.66724V4.66724Z" fill="white"/>
</svg>
