<svg width="20" height="18" viewBox="0 0 20 18" fill="none" xmlns="http://www.w3.org/2000/svg">
<path d="M5.84552 10.8244V11.5939C5.84552 11.7778 5.97669 11.9268 6.13849 11.9268C6.30029 11.9268 6.43146 11.7778 6.43146 11.5939V10.8244C6.43146 10.6405 6.30029 10.4915 6.13849 10.4915C5.97669 10.4915 5.84552 10.6405 5.84552 10.8244Z" fill="#055FD6"/>
<path d="M13.6218 10.4915C13.46 10.4915 13.3289 10.6405 13.3289 10.8244V11.5939C13.3289 11.7778 13.46 11.9268 13.6218 11.9268C13.7836 11.9268 13.9148 11.7778 13.9148 11.5939V10.8244C13.9148 10.6405 13.7836 10.4915 13.6218 10.4915Z" fill="#055FD6"/>
<path d="M10.9965 11.2897C10.8746 11.1687 10.6896 11.1828 10.5831 11.3212C10.4117 11.544 10.1556 11.6717 9.88019 11.6717C9.6048 11.6717 9.3486 11.544 9.17727 11.3212C9.07075 11.1828 8.88568 11.1687 8.76388 11.2897C8.64205 11.4107 8.62959 11.621 8.73611 11.7594C9.01868 12.1269 9.43571 12.3376 9.88019 12.3376C10.3246 12.3376 10.7416 12.1269 11.0242 11.7594C11.1307 11.621 11.1183 11.4107 10.9965 11.2897Z" fill="#055FD6"/>
<path d="M18.522 13.8931V11.1566C18.522 9.02595 17.9261 7.00989 16.7983 5.31804V4.21132C16.7983 3.25181 16.1114 2.47118 15.267 2.47118C14.9204 2.47118 14.6005 2.60288 14.3436 2.82434C13.4207 2.20116 12.4185 1.78918 11.3597 1.59654C11.1045 1.03807 10.591 0.655396 10 0.655396C9.40902 0.655396 8.89555 1.03807 8.64035 1.59654C7.58152 1.78918 6.57941 2.20116 5.65648 2.8243C5.39957 2.60288 5.07961 2.47114 4.73305 2.47114C3.88867 2.47114 3.20172 3.25172 3.20172 4.21128V5.31808C2.07391 7.00989 1.47801 9.02591 1.47801 11.1565V13.8931C0.640469 14.0523 0 14.8813 0 15.8775C0 16.9872 0.794453 17.89 1.77102 17.89H3.88289C4.04469 17.89 4.17586 17.7409 4.17586 17.5571C4.17586 17.3732 4.04469 17.2241 3.88289 17.2241H1.77102C1.11754 17.2242 0.585938 16.6201 0.585938 15.8775C0.585938 15.135 1.11754 14.5309 1.77102 14.5309H15.2891C15.4509 14.5309 15.5821 14.3818 15.5821 14.198C15.5821 14.0141 15.4509 13.865 15.2891 13.865H2.06398V11.1565C2.06398 9.49066 2.45484 7.89998 3.20176 6.50021C3.20176 6.50021 3.20176 7.29744 3.20176 7.29811C3.20176 8.23188 3.9116 9.03825 4.73309 9.03825C5.56754 9.03825 6.26441 8.24479 6.26441 7.29811V4.21128C6.26441 4.21035 6.26434 4.20942 6.26434 4.20848C6.26434 3.90331 6.19066 3.59445 6.05434 3.33122C6.80898 2.83806 7.61906 2.4944 8.47074 2.30614C8.46941 2.33584 8.46875 2.36562 8.46875 2.3955C8.46875 2.3955 8.46875 6.93389 8.46875 6.93491C8.46875 7.8796 9.16914 8.67506 10.0001 8.67506C10.8304 8.67506 11.5314 7.87854 11.5314 6.93491V2.39554C11.5314 2.36558 11.5307 2.33575 11.5294 2.30614C12.3811 2.49444 13.1911 2.83806 13.9458 3.33122C13.9397 3.34303 13.9344 3.35528 13.9285 3.36726C13.8028 3.6241 13.7357 3.91738 13.7357 4.21128V7.29811C13.7357 8.2463 14.4339 9.03825 15.267 9.03825C16.1114 9.03825 16.7983 8.25767 16.7983 7.29811V6.50021C17.5452 7.89998 17.9361 9.49071 17.9361 11.1565V13.865H16.461C16.2992 13.865 16.168 14.0141 16.168 14.198C16.168 14.3818 16.2992 14.5309 16.461 14.5309H18.229C18.8825 14.5309 19.4141 15.135 19.4141 15.8775C19.4141 16.6201 18.8825 17.2241 18.229 17.2241H5.05477C4.89297 17.2241 4.7618 17.3732 4.7618 17.5571C4.7618 17.7409 4.89297 17.89 5.05477 17.89H18.229C19.2055 17.89 20 16.9872 20 15.8775C20 14.8813 19.3595 14.0523 18.522 13.8931ZM3.7877 4.21132C3.7877 3.61895 4.2118 3.13702 4.73309 3.13702C5.24648 3.13702 5.67762 3.62827 5.67844 4.21128C5.67844 4.21128 5.67844 7.29726 5.67844 7.29811C5.67844 7.88107 5.24586 8.37241 4.73309 8.37241C4.22223 8.37241 3.7877 7.87849 3.7877 7.29811V4.21132ZM10 1.32123C10.5127 1.32123 10.9454 1.81324 10.9454 2.39554V6.93496C10.9454 7.52001 10.5139 8.00926 10 8.00926C9.48957 8.00926 9.05469 7.52183 9.05469 6.935C9.05469 6.935 9.05469 2.39563 9.05469 2.39448C9.06422 1.80974 9.47937 1.32123 10 1.32123ZM16.2123 4.21132C16.2123 4.21132 16.2123 7.29722 16.2123 7.29811C16.2123 7.88262 15.7812 8.37241 15.267 8.37241C14.7577 8.37241 14.3216 7.87752 14.3216 7.29811C14.3216 7.29811 14.3216 4.2115 14.3216 4.21128C14.3216 3.62685 14.7536 3.13702 15.267 3.13702C15.7882 3.13702 16.2123 3.61895 16.2123 4.21132Z" fill="#055FD6"/>
</svg>
