<svg width="20" height="20" viewBox="0 0 20 20" fill="none" xmlns="http://www.w3.org/2000/svg">
<path d="M19.0024 17.2623H5.62848C5.07727 17.2623 4.63052 16.8155 4.63052 16.2643C4.63052 15.7131 5.07727 15.2664 5.62848 15.2664H19.0021C19.5533 15.2664 20 15.7131 20 16.2643C20 16.8155 19.5536 17.2623 19.0024 17.2623Z" fill="white"/>
<path d="M19.0024 10.9981H5.62848C5.07727 10.9981 4.63052 10.5514 4.63052 10.0002C4.63052 9.44898 5.07727 9.00223 5.62848 9.00223H19.0021C19.5533 9.00223 20 9.44898 20 10.0002C20.0003 10.5514 19.5536 10.9981 19.0024 10.9981Z" fill="white"/>
<path d="M19.0024 4.73397H5.62848C5.07727 4.73397 4.63052 4.28722 4.63052 3.73601C4.63052 3.18481 5.07727 2.73806 5.62848 2.73806H19.0021C19.5533 2.73806 20 3.18481 20 3.73601C20 4.28722 19.5536 4.73397 19.0024 4.73397Z" fill="white"/>
<path d="M1.34025 5.15344C2.08045 5.15344 2.6805 4.55339 2.6805 3.81319C2.6805 3.07299 2.08045 2.47294 1.34025 2.47294C0.600051 2.47294 0 3.07299 0 3.81319C0 4.55339 0.600051 5.15344 1.34025 5.15344Z" fill="white"/>
<path d="M1.34025 11.3404C2.08045 11.3404 2.6805 10.7404 2.6805 10.0002C2.6805 9.25998 2.08045 8.65993 1.34025 8.65993C0.600051 8.65993 0 9.25998 0 10.0002C0 10.7404 0.600051 11.3404 1.34025 11.3404Z" fill="white"/>
<path d="M1.34025 17.5274C2.08045 17.5274 2.6805 16.9274 2.6805 16.1872C2.6805 15.447 2.08045 14.8469 1.34025 14.8469C0.600051 14.8469 0 15.447 0 16.1872C0 16.9274 0.600051 17.5274 1.34025 17.5274Z" fill="white"/>
</svg>
