<svg width="41" height="47" viewBox="0 0 41 47" fill="none" xmlns="http://www.w3.org/2000/svg">
<path d="M0.5 12.037L20.118 0.578287L39.9419 12.0385V34.9615L20.118 46.4217L0.5 34.963V12.037Z" stroke="#277EF1"/>
<path d="M3.27908 13.5677L7.10466 11.4767V35.5232L3.27908 33.4322V13.5677Z" fill="#277EF1"/>
<path d="M14.7558 7.10463L18.5814 4.91858V28.9651L14.7558 27.8721V7.10463Z" fill="#277EF1"/>
<path d="M7.10466 16.1221V11.4767L14.7558 7.10463L14.7558 11.4767L7.10466 16.1221Z" fill="#277EF1"/>
<path d="M7.10466 21.4685V25.686L14.7558 27.8721L14.7558 23.7732L7.10466 21.4685Z" fill="#277EF1"/>
<path d="M33.3372 11.2035L37.1627 13.2956V20.2209L33.3372 19.1279V11.2035Z" fill="#ED1C26"/>
<path d="M33.3372 35.7965L37.1627 33.7044V29.5116V25.4128L33.3372 27.8944V35.7965Z" fill="#ED1C26"/>
<path d="M25.686 7.10463V11.4767L33.3372 15.8488V11.2035L25.686 7.10463Z" fill="#ED1C26"/>
<path d="M33.3372 31.1511L33.3217 35.7965L25.686 39.8953V35.5232L33.3372 31.1511Z" fill="#ED1C26"/>
<path d="M28.9651 22.3557V26.7278L37.1581 28.9138L37.1581 24.815L28.9651 22.3557Z" fill="#ED1C26"/>
<path d="M25.686 7.10463L21.8604 4.91858V42.0814L25.686 39.8953V7.10463Z" fill="#ED1C26"/>
</svg>
