<svg width="20" height="20" viewBox="0 0 20 20" fill="none" xmlns="http://www.w3.org/2000/svg">
<g clip-path="url(#clip0)">
<path d="M18.6701 10.259C18.5897 10.0943 18.5897 9.90552 18.6701 9.74091L19.4161 8.21494C19.8314 7.3653 19.5023 6.35261 18.6669 5.90937L17.1666 5.11328C17.0047 5.02742 16.8937 4.87461 16.862 4.69418L16.5686 3.02118C16.4052 2.0897 15.5436 1.46377 14.6074 1.59623L12.9256 1.83412C12.7441 1.85975 12.5646 1.80139 12.4329 1.674L11.2122 0.493073C10.5325 -0.164501 9.46762 -0.16454 8.78794 0.493073L7.56716 1.67412C7.43544 1.80154 7.25595 1.85978 7.07447 1.83424L5.39272 1.59635C4.4562 1.46381 3.59488 2.08982 3.43148 3.0213L3.13805 4.69422C3.10637 4.87469 2.99539 5.02746 2.83356 5.11336L1.33317 5.90945C0.497788 6.35265 0.168727 7.36542 0.584037 8.21506L1.32993 9.74099C1.4104 9.90564 1.4104 10.0945 1.32993 10.2591L0.583998 11.785C0.168688 12.6346 0.497749 13.6473 1.33313 14.0906L2.83352 14.8867C2.99539 14.9725 3.10637 15.1253 3.13805 15.3058L3.43148 16.9788C3.58023 17.8267 4.30734 18.4214 5.14299 18.4213C5.2253 18.4213 5.30881 18.4155 5.39276 18.4037L7.07451 18.1658C7.25587 18.14 7.43548 18.1985 7.5672 18.3259L8.78794 19.5068C9.12785 19.8357 9.56387 20 10 20C10.4361 20 10.8724 19.8356 11.2121 19.5068L12.4329 18.3259C12.5646 18.1985 12.7442 18.1403 12.9256 18.1658L14.6074 18.4037C15.544 18.5362 16.4052 17.9102 16.5686 16.9787L16.8621 15.3058C16.8937 15.1253 17.0047 14.9726 17.1666 14.8867L18.6669 14.0906C19.5023 13.6474 19.8314 12.6346 19.4161 11.785L18.6701 10.259ZM18.1263 13.0716L16.6259 13.8676C16.1475 14.1215 15.8195 14.573 15.7259 15.1064L15.4325 16.7794C15.3772 17.0945 15.0858 17.3062 14.7689 17.2615L13.0872 17.0236C12.5508 16.9476 12.0201 17.1202 11.6309 17.4968L10.4101 18.6777C10.1802 18.9001 9.81992 18.9001 9.58992 18.6777L8.36919 17.4967C8.04021 17.1785 7.61013 17.006 7.16115 17.006C7.07888 17.006 6.99595 17.0118 6.91291 17.0236L5.23116 17.2615C4.91452 17.3062 4.62292 17.0945 4.56761 16.7793L4.27413 15.1063C4.18054 14.5729 3.85249 14.1214 3.3741 13.8676L1.87372 13.0715C1.59106 12.9216 1.47974 12.5789 1.62024 12.2915L2.36618 10.7655C2.60399 10.279 2.60399 9.72091 2.36618 9.23435L1.62024 7.70838C1.47974 7.42092 1.59106 7.07831 1.87372 6.92835L3.3741 6.13226C3.85246 5.87839 4.18054 5.42691 4.27409 4.89348L4.56753 3.22052C4.62284 2.90536 4.91417 2.69365 5.23108 2.73841L6.91283 2.9763C7.44896 3.0522 7.97985 2.87966 8.36911 2.50314L9.58988 1.32221C9.8198 1.09979 10.1801 1.09979 10.4101 1.32221L11.6308 2.50314C12.0201 2.8797 12.5509 3.0522 13.0871 2.9763L14.7688 2.73841C15.0855 2.69361 15.3771 2.90536 15.4324 3.22052L15.7258 4.89352C15.8194 5.42695 16.1475 5.87847 16.6259 6.13226L18.1262 6.92835C18.4089 7.07831 18.5202 7.42092 18.3797 7.70838L17.6338 9.23431C17.396 9.72083 17.396 10.279 17.6338 10.7655L18.3797 12.2914C18.5203 12.5789 18.4089 12.9216 18.1263 13.0716Z" fill="white"/>
<path d="M14.2142 5.78575C13.989 5.56051 13.6238 5.56051 13.3986 5.78575L5.78575 13.3986C5.56051 13.6238 5.56051 13.989 5.78575 14.2143C5.89836 14.3269 6.04598 14.3832 6.19356 14.3832C6.34113 14.3832 6.48879 14.3269 6.60137 14.2143L14.2142 6.60144C14.4395 6.37617 14.4395 6.01102 14.2142 5.78575Z" fill="white"/>
<path d="M7.69298 4.8092C6.52689 4.8092 5.57819 5.75791 5.57819 6.924C5.57819 8.09008 6.52689 9.03879 7.69298 9.03879C8.85907 9.03879 9.80777 8.09008 9.80777 6.924C9.80777 5.75791 8.85907 4.8092 7.69298 4.8092ZM7.69298 7.88524C7.16294 7.88524 6.73173 7.45403 6.73173 6.92396C6.73173 6.39392 7.16294 5.96271 7.69298 5.96271C8.22301 5.96271 8.65426 6.39392 8.65426 6.92396C8.65422 7.45403 8.22301 7.88524 7.69298 7.88524Z" fill="white"/>
<path d="M12.307 10.9613C11.1409 10.9613 10.1922 11.91 10.1922 13.0761C10.1922 14.2422 11.1409 15.1909 12.307 15.1909C13.4731 15.1909 14.4218 14.2422 14.4218 13.0761C14.4218 11.91 13.4731 10.9613 12.307 10.9613ZM12.307 14.0373C11.777 14.0373 11.3457 13.6061 11.3457 13.0761C11.3457 12.5461 11.7769 12.1149 12.307 12.1149C12.837 12.1149 13.2682 12.5461 13.2682 13.0761C13.2682 13.6061 12.837 14.0373 12.307 14.0373Z" fill="white"/>
</g>
<defs>
<clipPath id="clip0">
<rect width="20" height="20" fill="white"/>
</clipPath>
</defs>
</svg>
