<svg width="19" height="18" viewBox="0 0 19 18" fill="none" xmlns="http://www.w3.org/2000/svg">
<path d="M18.3103 17.2046L12.2099 11.1042C13.2062 9.92765 13.8103 8.40895 13.8103 6.75001C13.8103 3.02783 10.7825 0 7.06031 0C3.33816 0 0.310303 3.02783 0.310303 6.75001C0.310303 10.4722 3.33813 13.5 7.06031 13.5C8.71925 13.5 10.2379 12.8959 11.4145 11.8996L17.5149 18L18.3103 17.2046ZM7.06031 12.375C3.95887 12.375 1.43532 9.85145 1.43532 6.75001C1.43532 3.64857 3.95887 1.12501 7.06031 1.12501C10.1618 1.12501 12.6853 3.64857 12.6853 6.75001C12.6853 9.85145 10.1618 12.375 7.06031 12.375Z" fill="#67BFFC"/>
</svg>
