<svg width="16" height="13" viewBox="0 0 16 13" fill="none" xmlns="http://www.w3.org/2000/svg">
<path d="M15.3764 11.6358C14.7988 12.3802 13.7325 12.6838 11.6961 12.6838H4.30379C2.22075 12.6838 1.13636 12.3606 0.560981 11.5681C0 10.7954 0 9.65681 0 8.08104V5.07763C0 2.02486 0.6656 0.47489 4.30379 0.47489H11.6961C13.4621 0.47489 14.4407 0.742835 15.0738 1.39977C15.723 2.07344 16 3.17337 16 5.07763V8.08104C16 9.74283 15.9566 10.8881 15.3764 11.6358ZM10.2721 6.16469L6.91525 4.26249C6.84021 4.21996 6.75814 4.19886 6.67618 4.19886C6.58338 4.19886 6.49079 4.22595 6.40877 4.27979C6.25435 4.38124 6.16005 4.56273 6.16005 4.75848V8.55067C6.16005 8.74609 6.25409 8.92741 6.40821 9.02892C6.56237 9.13044 6.75412 9.13737 6.91406 9.04728L10.2709 7.15734C10.4417 7.06119 10.5489 6.87003 10.5492 6.66146C10.5494 6.45272 10.4426 6.26128 10.2721 6.16469Z" fill="white"/>
</svg>
