<svg width="0" height="0" class="hidden">

<symbol viewBox="0 0 20 20" id="agreement">
<g clip-path="url(#clip0)">
<path d="M19.9185 8.52966L16.5711 4.18121C16.4472 4.02038 16.2212 3.98071 16.0498 4.08965L13.8886 5.46416H11.0698C11.0334 5.46416 10.997 5.47195 10.9619 5.48217L8.77642 6.11129L6.50866 5.49102L4.30514 4.08965C4.13668 3.98254 3.91482 4.01885 3.78954 4.17419L0.0869977 8.76037C-0.046059 8.92516 -0.0240863 9.1658 0.136436 9.30389L2.07705 10.974L3.81808 13.3202C3.30889 13.8626 3.31881 14.7182 3.8486 15.2481C4.08343 15.4828 4.38204 15.6154 4.6892 15.6462C4.67852 15.7158 4.67303 15.7864 4.67303 15.8581C4.67303 16.2283 4.81722 16.5764 5.07891 16.8381C5.34075 17.0999 5.68881 17.2441 6.05898 17.2441C6.06402 17.2441 6.0689 17.2438 6.07379 17.2436C6.07363 17.2531 6.07317 17.2624 6.07317 17.2719C6.07317 17.6421 6.21737 17.9901 6.47906 18.2519C6.7409 18.5136 7.08895 18.6578 7.45913 18.6578C7.53222 18.6578 7.60455 18.6519 7.6755 18.6409C7.70556 18.9491 7.83846 19.2491 8.07406 19.4847C8.34414 19.7549 8.69906 19.89 9.05398 19.89C9.4089 19.89 9.76382 19.7549 10.0341 19.4847L10.246 19.2728L10.335 19.3445C10.6029 19.604 10.9508 19.7337 11.2987 19.7337C11.6536 19.7337 12.0085 19.5987 12.2786 19.3285C12.5543 19.0527 12.6894 18.6888 12.6837 18.3267C13.0457 18.3322 13.4098 18.1973 13.6855 17.9217C13.9609 17.6462 14.0959 17.2826 14.0906 16.9206C14.4676 16.9266 14.8253 16.7818 15.0922 16.5149C15.3679 16.2392 15.503 15.8752 15.4973 15.5131C15.8596 15.5186 16.2233 15.3838 16.4991 15.108C16.9696 14.6374 17.0302 13.9101 16.6812 13.3731L17.9525 10.7107L19.8636 9.06616C20.0215 8.9302 20.0457 8.6946 19.9185 8.52966ZM4.17971 4.93942L5.76418 5.94695L2.31738 10.1462L0.93615 8.95736L4.17971 4.93942ZM4.40325 13.8426L4.88146 13.3644C4.89596 13.3499 4.91122 13.3362 4.92678 13.3234C5.02032 13.2471 5.13354 13.2016 5.25347 13.1908C5.25683 13.1905 5.26034 13.1905 5.2637 13.1903C5.28079 13.1889 5.29788 13.188 5.31512 13.1882C5.479 13.1905 5.63128 13.2574 5.7442 13.3766C5.96575 13.6108 5.95385 13.9935 5.71765 14.2297L5.25393 14.6934C5.0194 14.928 4.63778 14.928 4.40325 14.6934C4.16873 14.4588 4.16873 14.0771 4.40325 13.8426ZM5.63357 16.2834C5.51989 16.1699 5.45733 16.0188 5.45733 15.8581C5.45733 15.6975 5.51989 15.5464 5.63357 15.4327L6.56085 14.5055C6.73846 14.3278 7.01769 14.2792 7.24475 14.3874C7.47882 14.4989 7.6105 14.753 7.57617 15.0085C7.55786 15.145 7.49438 15.2734 7.39703 15.3709L6.4844 16.2834C6.37072 16.3971 6.21966 16.4597 6.05898 16.4597C5.89831 16.4597 5.74725 16.3971 5.63357 16.2834ZM7.03372 17.6971C6.92004 17.5836 6.85748 17.4326 6.85748 17.2719C6.85748 17.1112 6.92004 16.9601 7.03372 16.8465L7.96084 15.9192C8.15081 15.7294 8.45553 15.6885 8.68807 15.8238C8.90048 15.9474 9.01171 16.19 8.97524 16.4317C8.95526 16.5646 8.89208 16.6896 8.79702 16.7847L7.88455 17.6971C7.77087 17.8108 7.61981 17.8734 7.45913 17.8734C7.29846 17.8734 7.14739 17.8108 7.03372 17.6971ZM8.62856 18.93C8.39404 18.6955 8.39404 18.3139 8.62856 18.0794L9.10678 17.6012C9.12127 17.5867 9.13638 17.5731 9.15194 17.5603C9.1524 17.56 9.15271 17.5597 9.15301 17.5594C9.23083 17.4962 9.32223 17.4539 9.41973 17.4355C9.42202 17.4351 9.42431 17.4348 9.4266 17.4345C9.44339 17.4315 9.46047 17.429 9.47756 17.4275C9.48443 17.4269 9.4913 17.4269 9.49832 17.4264C9.51235 17.4257 9.52624 17.4248 9.54043 17.4249C9.70416 17.4272 9.85659 17.494 9.96951 17.6134C9.98339 17.628 9.99636 17.6433 10.0083 17.659C10.1886 17.8947 10.1644 18.2449 9.94052 18.4689L9.47924 18.9302C9.24471 19.1647 8.86309 19.1646 8.62856 18.93ZM15.9444 14.5534C15.7099 14.7881 15.3282 14.7879 15.0937 14.5534C15.0852 14.5448 15.0762 14.5369 15.067 14.5294L12.5453 11.9812C12.3929 11.8272 12.1446 11.826 11.9907 11.9784C11.8367 12.1307 11.8355 12.379 11.9878 12.533L14.5368 15.1085C14.5371 15.1088 14.5374 15.1091 14.5377 15.1094C14.7722 15.3439 14.7722 15.7257 14.5377 15.9602C14.424 16.0739 14.2729 16.1365 14.1123 16.1365C13.9514 16.1365 13.8004 16.0739 13.6869 15.9602L11.9817 14.2374C11.8294 14.0834 11.5811 14.0822 11.4272 14.2345C11.2732 14.3869 11.272 14.6352 11.4243 14.7891L13.1034 16.4856C13.1119 16.4963 13.1211 16.5065 13.1308 16.5163C13.3654 16.7508 13.3654 17.1326 13.1308 17.3671C12.8961 17.6016 12.5144 17.6015 12.2798 17.3669L11.3492 16.4265C11.1968 16.2726 10.9485 16.2712 10.7946 16.4236C10.6406 16.5759 10.6394 16.8242 10.7917 16.9781L11.6963 17.8921C11.7049 17.9028 11.714 17.9132 11.724 17.923C11.9585 18.1575 11.9585 18.5393 11.724 18.7738C11.4894 19.0085 11.1078 19.0083 10.8733 18.7738C10.8463 18.7468 10.8145 18.726 10.7843 18.7028C10.7587 18.6833 10.752 18.6697 10.7648 18.6386C10.7778 18.607 10.7971 18.5785 10.8101 18.5467C10.8245 18.5113 10.8361 18.4749 10.8473 18.4383C10.9075 18.2445 10.9252 18.036 10.8982 17.8349C10.8463 17.449 10.634 17.1008 10.3124 16.8805C10.1386 16.7616 9.93746 16.6837 9.72903 16.6544C9.83004 16.2088 9.70874 15.7257 9.39318 15.3923C9.13348 15.1179 8.78268 14.964 8.40533 14.9588C8.3916 14.9586 8.37786 14.9586 8.36398 14.9588C8.37237 14.5987 8.24145 14.2409 7.99319 13.9786C7.73333 13.7042 7.38253 13.5503 7.00533 13.5451C6.89318 13.5435 6.77996 13.5554 6.67071 13.5806C6.62402 13.2558 6.46029 12.9552 6.21234 12.7402C5.96591 12.5268 5.656 12.4084 5.32595 12.4039C4.97851 12.3988 4.63717 12.527 4.37914 12.76L2.86318 10.7173L6.48989 6.29897L7.64575 6.61514L6.13619 9.27886C5.9537 9.60098 5.90762 9.97482 6.00634 10.3316C6.10507 10.6885 6.33669 10.9854 6.65881 11.1679C6.67895 11.1793 6.69924 11.1902 6.71984 11.2006C6.72137 11.2013 6.72289 11.2021 6.72457 11.2028C6.77874 11.2299 6.83444 11.253 6.89089 11.2726C7.1538 11.3637 7.43777 11.3736 7.71166 11.2979C8.06841 11.1992 8.36535 10.9674 8.54785 10.6454L9.52883 8.91433L11.2804 9.03854L15.9445 13.7025C16.1789 13.9372 16.1789 14.3188 15.9444 14.5534ZM16.1069 12.7557L11.7314 8.38042C11.7232 8.37203 11.7145 8.3641 11.7055 8.35662C11.6425 8.30413 11.5644 8.27239 11.482 8.26659L9.33734 8.11446C9.18902 8.10424 9.04162 8.18313 8.96838 8.31237L7.86547 10.2588C7.78628 10.3986 7.65734 10.4991 7.50247 10.542C7.34774 10.5849 7.18539 10.5647 7.04547 10.4855C6.90569 10.4063 6.80514 10.2774 6.76226 10.1225C6.71939 9.96764 6.73937 9.80529 6.81872 9.66552L8.29104 7.0671L8.88766 6.89544C8.89163 6.89422 8.89544 6.89269 8.89941 6.89147L11.1261 6.24847H13.8166L17.1753 10.5182L16.1069 12.7557ZM17.6891 9.90264L14.583 5.95199L16.1682 4.94384L19.0706 8.71383L17.6891 9.90264Z" fill="white"/>
<path d="M12.1165 4.72769C12.217 4.72769 12.3174 4.68939 12.394 4.61279L15.0728 1.93396C15.226 1.78076 15.226 1.5325 15.0728 1.3793C14.9196 1.2261 14.6713 1.2261 14.5181 1.3793L11.8393 4.05814C11.6861 4.21133 11.6861 4.4596 11.8393 4.61279C11.9159 4.68939 12.0163 4.72769 12.1165 4.72769Z" fill="white"/>
<path d="M7.60606 4.61279C7.68265 4.68939 7.78306 4.72769 7.88346 4.72769C7.98371 4.72769 8.08411 4.68939 8.16071 4.61279C8.31391 4.4596 8.31391 4.21133 8.16071 4.05814L5.48187 1.3793C5.32868 1.2261 5.08041 1.2261 4.92722 1.3793C4.77402 1.5325 4.77402 1.78076 4.92722 1.93396L7.60606 4.61279Z" fill="white"/>
<path d="M10 4.72781C10.2165 4.72781 10.3922 4.55219 10.3922 4.33566V2.11871C10.3922 1.90219 10.2165 1.72656 10 1.72656C9.78348 1.72656 9.60785 1.90219 9.60785 2.11871V4.33566C9.60785 4.55219 9.78348 4.72781 10 4.72781Z" fill="white"/>
<path d="M9.63808 0.697323C9.70033 0.848233 9.85551 0.947262 10.0192 0.938717C10.181 0.930325 10.323 0.821072 10.3731 0.667111C10.4233 0.511929 10.3687 0.33508 10.2387 0.236203C10.1061 0.135189 9.92113 0.129544 9.78242 0.221249C9.6277 0.323483 9.56773 0.527035 9.63808 0.697323Z" fill="white"/>
</g>
<defs>
<clipPath id="clip0">
<rect width="20" height="20" fill="white"/>
</clipPath>
</defs>
</symbol>

<symbol viewBox="0 0 32 10" id="arrow">
  <path d="M31.4243 5.42426C31.6586 5.18995 31.6586 4.81005 31.4243 4.57574L27.6059 0.757359C27.3716 0.523044 26.9917 0.523044 26.7574 0.757359C26.523 0.991674 26.523 1.37157 26.7574 1.60589L30.1515 5L26.7574 8.39411C26.523 8.62843 26.523 9.00833 26.7574 9.24264C26.9917 9.47696 27.3716 9.47696 27.6059 9.24264L31.4243 5.42426ZM2.35789e-09 5.6L31 5.6L31 4.4L-2.35789e-09 4.4L2.35789e-09 5.6Z" fill="white"/>
</symbol>


</svg>